ply
format ascii 1.0
comment VCGLIB generated
element vertex 8
property float x
property float y
property float z
element face 12
property list uchar int vertex_indices
property list uchar float texcoord
property uchar red
property uchar green
property uchar blue
property uchar alpha
end_header
1 -1 -1 
1 -1 1 
-1 -1 1 
-1 -1 -1 
1 1 -1 
0.999999 1 1.000001 
-1 1 1 
-1 1 -1 
3 4 0 3 6 0.748573 0.750412 0.749279 0.501284 0.999110 0.501077 192 192 192 255 
3 4 3 7 6 0.748573 0.750412 0.999110 0.501077 0.999455 0.750380 192 192 192 255 
3 2 6 7 6 0.250471 0.500702 0.249682 0.749677 0.001085 0.750380 192 192 192 255 
3 2 7 3 6 0.250471 0.500702 0.001085 0.750380 0.001517 0.499994 192 192 192 255 
3 1 5 2 6 0.499422 0.500239 0.500149 0.750166 0.250471 0.500702 192 192 192 255 
3 5 6 2 6 0.500149 0.750166 0.249682 0.749677 0.250471 0.500702 192 192 192 255 
3 0 4 1 6 0.749279 0.501284 0.748573 0.750412 0.499422 0.500239 192 192 192 255 
3 4 5 1 6 0.748573 0.750412 0.500149 0.750166 0.499422 0.500239 192 192 192 255 
3 4 7 5 6 0.748573 0.750412 0.748355 0.998230 0.500149 0.750166 192 192 192 255 
3 7 6 5 6 0.748355 0.998230 0.500193 0.998728 0.500149 0.750166 192 192 192 255 
3 0 1 2 6 0.749279 0.501284 0.499422 0.500239 0.498993 0.250415 192 192 192 255 
3 0 2 3 6 0.749279 0.501284 0.498993 0.250415 0.748953 0.250920 192 192 192 255 
